<svg width="1024" height="670" xmlns="http://www.w3.org/2000/svg"><g fill="#212121" fill-rule="evenodd"><circle cx="77" cy="185" r="4"/><circle cx="53" cy="209" r="4"/><circle cx="77" cy="209" r="4"/><circle cx="65" cy="197" r="4"/><circle cx="41" cy="221" r="4"/><circle cx="53" cy="233" r="4"/><circle cx="77" cy="233" r="4"/><circle cx="65" cy="221" r="4"/><circle cx="41" cy="245" r="4"/><circle cx="53" cy="257" r="4"/><circle cx="77" cy="257" r="4"/><circle cx="65" cy="245" r="4"/><circle cx="41" cy="269" r="4"/><circle cx="53" cy="281" r="4"/><circle cx="77" cy="281" r="4"/><circle cx="65" cy="269" r="4"/><circle cx="41" cy="293" r="4"/><circle cx="53" cy="305" r="4"/><circle cx="77" cy="305" r="4"/><circle cx="65" cy="293" r="4"/><circle cx="77" cy="329" r="4"/><circle cx="65" cy="317" r="4"/><circle cx="101" cy="161" r="4"/><circle cx="101" cy="185" r="4"/><circle cx="101" cy="209" r="4"/><circle cx="101" cy="233" r="4"/><circle cx="101" cy="257" r="4"/><circle cx="101" cy="281" r="4"/><circle cx="101" cy="305" r="4"/><circle cx="101" cy="329" r="4"/><circle cx="101" cy="353" r="4"/><circle cx="125" cy="137" r="4"/><circle cx="125" cy="161" r="4"/><circle cx="125" cy="185" r="4"/><circle cx="125" cy="209" r="4"/><circle cx="125" cy="233" r="4"/><circle cx="125" cy="257" r="4"/><circle cx="125" cy="281" r="4"/><circle cx="125" cy="305" r="4"/><circle cx="125" cy="329" r="4"/><circle cx="125" cy="353" r="4"/><circle cx="125" cy="377" r="4"/><circle cx="149" cy="113" r="4"/><circle cx="149" cy="137" r="4"/><circle cx="149" cy="161" r="4"/><circle cx="149" cy="185" r="4"/><circle cx="149" cy="209" r="4"/><circle cx="149" cy="233" r="4"/><circle cx="149" cy="257" r="4"/><circle cx="149" cy="281" r="4"/><circle cx="149" cy="305" r="4"/><circle cx="149" cy="329" r="4"/><circle cx="149" cy="353" r="4"/><circle cx="149" cy="377" r="4"/><circle cx="149" cy="401" r="4"/><circle cx="173" cy="89" r="4"/><circle cx="173" cy="113" r="4"/><circle cx="173" cy="137" r="4"/><circle cx="173" cy="161" r="4"/><circle cx="173" cy="185" r="4"/><circle cx="173" cy="209" r="4"/><circle cx="173" cy="233" r="4"/><circle cx="173" cy="257" r="4"/><circle cx="173" cy="281" r="4"/><circle cx="173" cy="305" r="4"/><circle cx="173" cy="329" r="4"/><circle cx="173" cy="353" r="4"/><circle cx="173" cy="377" r="4"/><circle cx="173" cy="401" r="4"/><circle cx="173" cy="425" r="4"/><circle cx="197" cy="65" r="4"/><circle cx="197" cy="89" r="4"/><circle cx="197" cy="113" r="4"/><circle cx="197" cy="137" r="4"/><circle cx="197" cy="161" r="4"/><circle cx="197" cy="185" r="4"/><circle cx="197" cy="209" r="4"/><circle cx="197" cy="233" r="4"/><circle cx="197" cy="257" r="4"/><circle cx="197" cy="281" r="4"/><circle cx="197" cy="305" r="4"/><circle cx="197" cy="329" r="4"/><circle cx="197" cy="353" r="4"/><circle cx="197" cy="377" r="4"/><circle cx="197" cy="401" r="4"/><circle cx="197" cy="425" r="4"/><circle cx="221" cy="41" r="4"/><circle cx="221" cy="65" r="4"/><circle cx="221" cy="89" r="4"/><circle cx="221" cy="113" r="4"/><circle cx="221" cy="137" r="4"/><circle cx="221" cy="161" r="4"/><circle cx="221" cy="185" r="4"/><circle cx="221" cy="209" r="4"/><circle cx="221" cy="233" r="4"/><circle cx="221" cy="257" r="4"/><circle cx="221" cy="281" r="4"/><circle cx="221" cy="305" r="4"/><circle cx="221" cy="329" r="4"/><circle cx="221" cy="353" r="4"/><circle cx="221" cy="377" r="4"/><circle cx="221" cy="401" r="4"/><circle cx="221" cy="425" r="4"/><circle cx="245" cy="41" r="4"/><circle cx="245" cy="65" r="4"/><circle cx="245" cy="89" r="4"/><circle cx="245" cy="113" r="4"/><circle cx="245" cy="137" r="4"/><circle cx="245" cy="161" r="4"/><circle cx="245" cy="185" r="4"/><circle cx="245" cy="209" r="4"/><circle cx="245" cy="233" r="4"/><circle cx="245" cy="257" r="4"/><circle cx="245" cy="281" r="4"/><circle cx="245" cy="305" r="4"/><circle cx="245" cy="329" r="4"/><circle cx="245" cy="353" r="4"/><circle cx="245" cy="377" r="4"/><circle cx="245" cy="401" r="4"/><circle cx="245" cy="425" r="4"/><circle cx="269" cy="41" r="4"/><circle cx="269" cy="65" r="4"/><circle cx="269" cy="89" r="4"/><circle cx="269" cy="113" r="4"/><circle cx="269" cy="137" r="4"/><circle cx="269" cy="161" r="4"/><circle cx="269" cy="185" r="4"/><circle cx="269" cy="209" r="4"/><circle cx="269" cy="233" r="4"/><circle cx="269" cy="257" r="4"/><circle cx="269" cy="281" r="4"/><circle cx="269" cy="305" r="4"/><circle cx="269" cy="329" r="4"/><circle cx="269" cy="353" r="4"/><circle cx="269" cy="377" r="4"/><circle cx="269" cy="401" r="4"/><circle cx="269" cy="425" r="4"/><circle cx="293" cy="41" r="4"/><circle cx="293" cy="65" r="4"/><circle cx="293" cy="89" r="4"/><circle cx="293" cy="113" r="4"/><circle cx="293" cy="137" r="4"/><circle cx="293" cy="161" r="4"/><circle cx="293" cy="185" r="4"/><circle cx="293" cy="209" r="4"/><circle cx="293" cy="233" r="4"/><circle cx="293" cy="257" r="4"/><circle cx="293" cy="281" r="4"/><circle cx="293" cy="305" r="4"/><circle cx="293" cy="329" r="4"/><circle cx="293" cy="353" r="4"/><circle cx="293" cy="377" r="4"/><circle cx="293" cy="401" r="4"/><circle cx="293" cy="425" r="4"/><circle cx="317" cy="41" r="4"/><circle cx="317" cy="65" r="4"/><circle cx="317" cy="89" r="4"/><circle cx="317" cy="113" r="4"/><circle cx="317" cy="137" r="4"/><circle cx="317" cy="161" r="4"/><circle cx="317" cy="185" r="4"/><circle cx="317" cy="209" r="4"/><circle cx="317" cy="233" r="4"/><circle cx="317" cy="257" r="4"/><circle cx="317" cy="281" r="4"/><circle cx="317" cy="305" r="4"/><circle cx="317" cy="329" r="4"/><circle cx="317" cy="353" r="4"/><circle cx="317" cy="377" r="4"/><circle cx="317" cy="401" r="4"/><circle cx="317" cy="425" r="4"/><circle cx="341" cy="41" r="4"/><circle cx="341" cy="65" r="4"/><circle cx="341" cy="89" r="4"/><circle cx="341" cy="113" r="4"/><circle cx="341" cy="137" r="4"/><circle cx="341" cy="161" r="4"/><circle cx="341" cy="185" r="4"/><circle cx="341" cy="209" r="4"/><circle cx="341" cy="233" r="4"/><circle cx="341" cy="257" r="4"/><circle cx="341" cy="281" r="4"/><circle cx="341" cy="305" r="4"/><circle cx="341" cy="329" r="4"/><circle cx="341" cy="353" r="4"/><circle cx="341" cy="377" r="4"/><circle cx="341" cy="401" r="4"/><circle cx="341" cy="425" r="4"/><circle cx="365" cy="65" r="4"/><circle cx="365" cy="89" r="4"/><circle cx="365" cy="113" r="4"/><circle cx="365" cy="137" r="4"/><circle cx="365" cy="161" r="4"/><circle cx="365" cy="185" r="4"/><circle cx="365" cy="209" r="4"/><circle cx="365" cy="233" r="4"/><circle cx="365" cy="257" r="4"/><circle cx="365" cy="281" r="4"/><circle cx="365" cy="305" r="4"/><circle cx="365" cy="329" r="4"/><circle cx="365" cy="353" r="4"/><circle cx="365" cy="377" r="4"/><circle cx="365" cy="401" r="4"/><circle cx="365" cy="425" r="4"/><circle cx="365" cy="449" r="4"/><circle cx="389" cy="89" r="4"/><circle cx="389" cy="113" r="4"/><circle cx="389" cy="137" r="4"/><circle cx="389" cy="161" r="4"/><circle cx="389" cy="185" r="4"/><circle cx="389" cy="209" r="4"/><circle cx="389" cy="233" r="4"/><circle cx="389" cy="257" r="4"/><circle cx="389" cy="281" r="4"/><circle cx="389" cy="305" r="4"/><circle cx="389" cy="329" r="4"/><circle cx="389" cy="353" r="4"/><circle cx="389" cy="377" r="4"/><circle cx="389" cy="401" r="4"/><circle cx="389" cy="425" r="4"/><circle cx="389" cy="449" r="4"/><circle cx="389" cy="473" r="4"/><circle cx="413" cy="113" r="4"/><circle cx="413" cy="137" r="4"/><circle cx="413" cy="161" r="4"/><circle cx="413" cy="185" r="4"/><circle cx="413" cy="209" r="4"/><circle cx="413" cy="233" r="4"/><circle cx="413" cy="257" r="4"/><circle cx="413" cy="281" r="4"/><circle cx="413" cy="305" r="4"/><circle cx="413" cy="329" r="4"/><circle cx="413" cy="353" r="4"/><circle cx="413" cy="377" r="4"/><circle cx="413" cy="401" r="4"/><circle cx="413" cy="425" r="4"/><circle cx="413" cy="449" r="4"/><circle cx="413" cy="473" r="4"/><circle cx="413" cy="497" r="4"/><circle cx="437" cy="137" r="4"/><circle cx="437" cy="161" r="4"/><circle cx="437" cy="185" r="4"/><circle cx="437" cy="209" r="4"/><circle cx="437" cy="233" r="4"/><circle cx="437" cy="257" r="4"/><circle cx="437" cy="281" r="4"/><circle cx="437" cy="305" r="4"/><circle cx="437" cy="329" r="4"/><circle cx="437" cy="353" r="4"/><circle cx="437" cy="377" r="4"/><circle cx="437" cy="401" r="4"/><circle cx="437" cy="425" r="4"/><circle cx="437" cy="449" r="4"/><circle cx="437" cy="473" r="4"/><circle cx="437" cy="497" r="4"/><circle cx="437" cy="521" r="4"/><circle cx="461" cy="161" r="4"/><circle cx="461" cy="185" r="4"/><circle cx="461" cy="209" r="4"/><circle cx="461" cy="233" r="4"/><circle cx="461" cy="257" r="4"/><circle cx="461" cy="281" r="4"/><circle cx="461" cy="305" r="4"/><circle cx="461" cy="329" r="4"/><circle cx="461" cy="353" r="4"/><circle cx="461" cy="377" r="4"/><circle cx="461" cy="401" r="4"/><circle cx="461" cy="425" r="4"/><circle cx="461" cy="449" r="4"/><circle cx="461" cy="473" r="4"/><circle cx="461" cy="497" r="4"/><circle cx="461" cy="521" r="4"/><circle cx="461" cy="545" r="4"/><circle cx="485" cy="185" r="4"/><circle cx="485" cy="209" r="4"/><circle cx="485" cy="233" r="4"/><circle cx="485" cy="257" r="4"/><circle cx="485" cy="281" r="4"/><circle cx="485" cy="305" r="4"/><circle cx="485" cy="329" r="4"/><circle cx="485" cy="353" r="4"/><circle cx="485" cy="377" r="4"/><circle cx="485" cy="401" r="4"/><circle cx="485" cy="425" r="4"/><circle cx="485" cy="449" r="4"/><circle cx="485" cy="473" r="4"/><circle cx="485" cy="497" r="4"/><circle cx="485" cy="521" r="4"/><circle cx="485" cy="545" r="4"/><circle cx="485" cy="569" r="4"/><circle cx="509" cy="209" r="4"/><circle cx="509" cy="233" r="4"/><circle cx="509" cy="257" r="4"/><circle cx="509" cy="281" r="4"/><circle cx="509" cy="305" r="4"/><circle cx="509" cy="329" r="4"/><circle cx="509" cy="353" r="4"/><circle cx="509" cy="377" r="4"/><circle cx="509" cy="401" r="4"/><circle cx="509" cy="425" r="4"/><circle cx="509" cy="449" r="4"/><circle cx="509" cy="473" r="4"/><circle cx="509" cy="497" r="4"/><circle cx="509" cy="521" r="4"/><circle cx="509" cy="545" r="4"/><circle cx="509" cy="569" r="4"/><circle cx="509" cy="593" r="4"/><circle cx="533" cy="233" r="4"/><circle cx="533" cy="257" r="4"/><circle cx="533" cy="281" r="4"/><circle cx="533" cy="305" r="4"/><circle cx="533" cy="329" r="4"/><circle cx="533" cy="353" r="4"/><circle cx="533" cy="377" r="4"/><circle cx="533" cy="401" r="4"/><circle cx="533" cy="425" r="4"/><circle cx="533" cy="449" r="4"/><circle cx="533" cy="473" r="4"/><circle cx="533" cy="497" r="4"/><circle cx="533" cy="521" r="4"/><circle cx="533" cy="545" r="4"/><circle cx="533" cy="569" r="4"/><circle cx="533" cy="593" r="4"/><circle cx="533" cy="617" r="4"/><circle cx="557" cy="257" r="4"/><circle cx="557" cy="281" r="4"/><circle cx="557" cy="305" r="4"/><circle cx="557" cy="329" r="4"/><circle cx="557" cy="353" r="4"/><circle cx="557" cy="377" r="4"/><circle cx="557" cy="401" r="4"/><circle cx="557" cy="425" r="4"/><circle cx="557" cy="449" r="4"/><circle cx="557" cy="473" r="4"/><circle cx="557" cy="497" r="4"/><circle cx="557" cy="521" r="4"/><circle cx="557" cy="545" r="4"/><circle cx="557" cy="569" r="4"/><circle cx="557" cy="593" r="4"/><circle cx="557" cy="617" r="4"/><circle cx="557" cy="641" r="4"/><circle cx="581" cy="281" r="4"/><circle cx="581" cy="305" r="4"/><circle cx="581" cy="329" r="4"/><circle cx="581" cy="353" r="4"/><circle cx="581" cy="377" r="4"/><circle cx="581" cy="401" r="4"/><circle cx="581" cy="425" r="4"/><circle cx="581" cy="449" r="4"/><circle cx="581" cy="473" r="4"/><circle cx="581" cy="497" r="4"/><circle cx="581" cy="521" r="4"/><circle cx="581" cy="545" r="4"/><circle cx="581" cy="569" r="4"/><circle cx="581" cy="593" r="4"/><circle cx="581" cy="617" r="4"/><circle cx="581" cy="641" r="4"/><circle cx="605" cy="281" r="4"/><circle cx="605" cy="305" r="4"/><circle cx="605" cy="329" r="4"/><circle cx="605" cy="353" r="4"/><circle cx="605" cy="377" r="4"/><circle cx="605" cy="401" r="4"/><circle cx="605" cy="425" r="4"/><circle cx="605" cy="449" r="4"/><circle cx="605" cy="473" r="4"/><circle cx="605" cy="497" r="4"/><circle cx="605" cy="521" r="4"/><circle cx="605" cy="545" r="4"/><circle cx="605" cy="569" r="4"/><circle cx="605" cy="593" r="4"/><circle cx="605" cy="617" r="4"/><circle cx="605" cy="641" r="4"/><circle cx="629" cy="281" r="4"/><circle cx="629" cy="305" r="4"/><circle cx="629" cy="329" r="4"/><circle cx="629" cy="353" r="4"/><circle cx="629" cy="377" r="4"/><circle cx="629" cy="401" r="4"/><circle cx="629" cy="425" r="4"/><circle cx="629" cy="449" r="4"/><circle cx="629" cy="473" r="4"/><circle cx="629" cy="497" r="4"/><circle cx="629" cy="521" r="4"/><circle cx="629" cy="545" r="4"/><circle cx="629" cy="569" r="4"/><circle cx="629" cy="593" r="4"/><circle cx="629" cy="617" r="4"/><circle cx="629" cy="641" r="4"/><circle cx="653" cy="257" r="4"/><circle cx="653" cy="281" r="4"/><circle cx="653" cy="305" r="4"/><circle cx="653" cy="329" r="4"/><circle cx="653" cy="353" r="4"/><circle cx="653" cy="377" r="4"/><circle cx="653" cy="401" r="4"/><circle cx="653" cy="425" r="4"/><circle cx="653" cy="449" r="4"/><circle cx="653" cy="473" r="4"/><circle cx="653" cy="497" r="4"/><circle cx="653" cy="521" r="4"/><circle cx="653" cy="545" r="4"/><circle cx="653" cy="569" r="4"/><circle cx="653" cy="593" r="4"/><circle cx="653" cy="617" r="4"/><circle cx="677" cy="233" r="4"/><circle cx="677" cy="257" r="4"/><circle cx="677" cy="281" r="4"/><circle cx="677" cy="305" r="4"/><circle cx="677" cy="329" r="4"/><circle cx="677" cy="353" r="4"/><circle cx="677" cy="377" r="4"/><circle cx="677" cy="401" r="4"/><circle cx="677" cy="425" r="4"/><circle cx="677" cy="449" r="4"/><circle cx="677" cy="473" r="4"/><circle cx="677" cy="497" r="4"/><circle cx="677" cy="521" r="4"/><circle cx="677" cy="545" r="4"/><circle cx="677" cy="569" r="4"/><circle cx="677" cy="593" r="4"/><circle cx="701" cy="209" r="4"/><circle cx="701" cy="233" r="4"/><circle cx="701" cy="257" r="4"/><circle cx="701" cy="281" r="4"/><circle cx="701" cy="305" r="4"/><circle cx="701" cy="329" r="4"/><circle cx="701" cy="353" r="4"/><circle cx="701" cy="377" r="4"/><circle cx="701" cy="401" r="4"/><circle cx="701" cy="425" r="4"/><circle cx="701" cy="449" r="4"/><circle cx="701" cy="473" r="4"/><circle cx="701" cy="497" r="4"/><circle cx="701" cy="521" r="4"/><circle cx="701" cy="545" r="4"/><circle cx="701" cy="569" r="4"/><circle cx="725" cy="185" r="4"/><circle cx="725" cy="209" r="4"/><circle cx="725" cy="233" r="4"/><circle cx="725" cy="257" r="4"/><circle cx="725" cy="281" r="4"/><circle cx="725" cy="305" r="4"/><circle cx="725" cy="329" r="4"/><circle cx="725" cy="353" r="4"/><circle cx="725" cy="377" r="4"/><circle cx="725" cy="401" r="4"/><circle cx="725" cy="425" r="4"/><circle cx="725" cy="449" r="4"/><circle cx="725" cy="473" r="4"/><circle cx="725" cy="497" r="4"/><circle cx="725" cy="521" r="4"/><circle cx="725" cy="545" r="4"/><circle cx="749" cy="161" r="4"/><circle cx="749" cy="185" r="4"/><circle cx="749" cy="209" r="4"/><circle cx="749" cy="233" r="4"/><circle cx="749" cy="257" r="4"/><circle cx="749" cy="281" r="4"/><circle cx="749" cy="305" r="4"/><circle cx="749" cy="329" r="4"/><circle cx="749" cy="353" r="4"/><circle cx="749" cy="377" r="4"/><circle cx="749" cy="401" r="4"/><circle cx="749" cy="425" r="4"/><circle cx="749" cy="449" r="4"/><circle cx="749" cy="473" r="4"/><circle cx="749" cy="497" r="4"/><circle cx="749" cy="521" r="4"/><circle cx="773" cy="137" r="4"/><circle cx="773" cy="161" r="4"/><circle cx="773" cy="185" r="4"/><circle cx="773" cy="209" r="4"/><circle cx="773" cy="233" r="4"/><circle cx="773" cy="257" r="4"/><circle cx="773" cy="281" r="4"/><circle cx="773" cy="305" r="4"/><circle cx="773" cy="329" r="4"/><circle cx="773" cy="353" r="4"/><circle cx="773" cy="377" r="4"/><circle cx="773" cy="401" r="4"/><circle cx="773" cy="425" r="4"/><circle cx="773" cy="449" r="4"/><circle cx="773" cy="473" r="4"/><circle cx="773" cy="497" r="4"/><circle cx="797" cy="137" r="4"/><circle cx="797" cy="161" r="4"/><circle cx="797" cy="185" r="4"/><circle cx="797" cy="209" r="4"/><circle cx="797" cy="233" r="4"/><circle cx="797" cy="257" r="4"/><circle cx="797" cy="281" r="4"/><circle cx="797" cy="305" r="4"/><circle cx="797" cy="329" r="4"/><circle cx="797" cy="353" r="4"/><circle cx="797" cy="377" r="4"/><circle cx="797" cy="401" r="4"/><circle cx="797" cy="425" r="4"/><circle cx="797" cy="449" r="4"/><circle cx="797" cy="473" r="4"/><circle cx="821" cy="137" r="4"/><circle cx="821" cy="161" r="4"/><circle cx="821" cy="185" r="4"/><circle cx="821" cy="209" r="4"/><circle cx="821" cy="233" r="4"/><circle cx="821" cy="257" r="4"/><circle cx="821" cy="281" r="4"/><circle cx="821" cy="305" r="4"/><circle cx="821" cy="329" r="4"/><circle cx="821" cy="353" r="4"/><circle cx="821" cy="377" r="4"/><circle cx="821" cy="401" r="4"/><circle cx="821" cy="425" r="4"/><circle cx="821" cy="449" r="4"/><circle cx="821" cy="473" r="4"/><circle cx="845" cy="137" r="4"/><circle cx="845" cy="161" r="4"/><circle cx="845" cy="185" r="4"/><circle cx="845" cy="209" r="4"/><circle cx="845" cy="233" r="4"/><circle cx="845" cy="257" r="4"/><circle cx="845" cy="281" r="4"/><circle cx="845" cy="305" r="4"/><circle cx="845" cy="329" r="4"/><circle cx="845" cy="353" r="4"/><circle cx="845" cy="377" r="4"/><circle cx="845" cy="401" r="4"/><circle cx="845" cy="425" r="4"/><circle cx="845" cy="449" r="4"/><circle cx="845" cy="473" r="4"/><circle cx="869" cy="137" r="4"/><circle cx="869" cy="161" r="4"/><circle cx="869" cy="185" r="4"/><circle cx="869" cy="209" r="4"/><circle cx="869" cy="233" r="4"/><circle cx="869" cy="257" r="4"/><circle cx="869" cy="281" r="4"/><circle cx="869" cy="305" r="4"/><circle cx="869" cy="329" r="4"/><circle cx="869" cy="353" r="4"/><circle cx="869" cy="377" r="4"/><circle cx="869" cy="401" r="4"/><circle cx="869" cy="425" r="4"/><circle cx="869" cy="449" r="4"/><circle cx="869" cy="473" r="4"/><circle cx="893" cy="161" r="4"/><circle cx="893" cy="185" r="4"/><circle cx="893" cy="209" r="4"/><circle cx="893" cy="233" r="4"/><circle cx="893" cy="257" r="4"/><circle cx="893" cy="281" r="4"/><circle cx="893" cy="305" r="4"/><circle cx="893" cy="329" r="4"/><circle cx="893" cy="353" r="4"/><circle cx="893" cy="377" r="4"/><circle cx="893" cy="401" r="4"/><circle cx="893" cy="425" r="4"/><circle cx="893" cy="449" r="4"/><circle cx="917" cy="185" r="4"/><circle cx="917" cy="209" r="4"/><circle cx="917" cy="233" r="4"/><circle cx="917" cy="257" r="4"/><circle cx="917" cy="281" r="4"/><circle cx="917" cy="305" r="4"/><circle cx="917" cy="329" r="4"/><circle cx="917" cy="353" r="4"/><circle cx="917" cy="377" r="4"/><circle cx="917" cy="401" r="4"/><circle cx="917" cy="425" r="4"/><circle cx="941" cy="209" r="4"/><circle cx="941" cy="233" r="4"/><circle cx="941" cy="257" r="4"/><circle cx="941" cy="281" r="4"/><circle cx="941" cy="305" r="4"/><circle cx="941" cy="329" r="4"/><circle cx="941" cy="353" r="4"/><circle cx="941" cy="377" r="4"/><circle cx="941" cy="401" r="4"/><circle cx="965" cy="233" r="4"/><circle cx="965" cy="257" r="4"/><circle cx="965" cy="281" r="4"/><circle cx="965" cy="305" r="4"/><circle cx="965" cy="329" r="4"/><circle cx="965" cy="353" r="4"/><circle cx="965" cy="377" r="4"/><circle cx="989" cy="257" r="4"/><circle cx="989" cy="281" r="4"/><circle cx="989" cy="305" r="4"/><circle cx="989" cy="329" r="4"/><circle cx="989" cy="353" r="4"/><circle cx="89" cy="173" r="4"/><circle cx="89" cy="197" r="4"/><circle cx="89" cy="221" r="4"/><circle cx="89" cy="245" r="4"/><circle cx="89" cy="269" r="4"/><circle cx="89" cy="293" r="4"/><circle cx="89" cy="317" r="4"/><circle cx="89" cy="341" r="4"/><circle cx="113" cy="149" r="4"/><circle cx="113" cy="173" r="4"/><circle cx="113" cy="197" r="4"/><circle cx="113" cy="221" r="4"/><circle cx="113" cy="245" r="4"/><circle cx="113" cy="269" r="4"/><circle cx="113" cy="293" r="4"/><circle cx="113" cy="317" r="4"/><circle cx="113" cy="341" r="4"/><circle cx="113" cy="365" r="4"/><circle cx="137" cy="125" r="4"/><circle cx="137" cy="149" r="4"/><circle cx="137" cy="173" r="4"/><circle cx="137" cy="197" r="4"/><circle cx="137" cy="221" r="4"/><circle cx="137" cy="245" r="4"/><circle cx="137" cy="269" r="4"/><circle cx="137" cy="293" r="4"/><circle cx="137" cy="317" r="4"/><circle cx="137" cy="341" r="4"/><circle cx="137" cy="365" r="4"/><circle cx="137" cy="389" r="4"/><circle cx="161" cy="101" r="4"/><circle cx="161" cy="125" r="4"/><circle cx="161" cy="149" r="4"/><circle cx="161" cy="173" r="4"/><circle cx="161" cy="197" r="4"/><circle cx="161" cy="221" r="4"/><circle cx="161" cy="245" r="4"/><circle cx="161" cy="269" r="4"/><circle cx="161" cy="293" r="4"/><circle cx="161" cy="317" r="4"/><circle cx="161" cy="341" r="4"/><circle cx="161" cy="365" r="4"/><circle cx="161" cy="389" r="4"/><circle cx="161" cy="413" r="4"/><circle cx="185" cy="77" r="4"/><circle cx="185" cy="101" r="4"/><circle cx="185" cy="125" r="4"/><circle cx="185" cy="149" r="4"/><circle cx="185" cy="173" r="4"/><circle cx="185" cy="197" r="4"/><circle cx="185" cy="221" r="4"/><circle cx="185" cy="245" r="4"/><circle cx="185" cy="269" r="4"/><circle cx="185" cy="293" r="4"/><circle cx="185" cy="317" r="4"/><circle cx="185" cy="341" r="4"/><circle cx="185" cy="365" r="4"/><circle cx="185" cy="389" r="4"/><circle cx="185" cy="413" r="4"/><circle cx="209" cy="53" r="4"/><circle cx="209" cy="77" r="4"/><circle cx="209" cy="101" r="4"/><circle cx="209" cy="125" r="4"/><circle cx="209" cy="149" r="4"/><circle cx="209" cy="173" r="4"/><circle cx="209" cy="197" r="4"/><circle cx="209" cy="221" r="4"/><circle cx="209" cy="245" r="4"/><circle cx="209" cy="269" r="4"/><circle cx="209" cy="293" r="4"/><circle cx="209" cy="317" r="4"/><circle cx="209" cy="341" r="4"/><circle cx="209" cy="365" r="4"/><circle cx="209" cy="389" r="4"/><circle cx="209" cy="413" r="4"/><circle cx="233" cy="29" r="4"/><circle cx="233" cy="53" r="4"/><circle cx="233" cy="77" r="4"/><circle cx="233" cy="101" r="4"/><circle cx="233" cy="125" r="4"/><circle cx="233" cy="149" r="4"/><circle cx="233" cy="173" r="4"/><circle cx="233" cy="197" r="4"/><circle cx="233" cy="221" r="4"/><circle cx="233" cy="245" r="4"/><circle cx="233" cy="269" r="4"/><circle cx="233" cy="293" r="4"/><circle cx="233" cy="317" r="4"/><circle cx="233" cy="341" r="4"/><circle cx="233" cy="365" r="4"/><circle cx="233" cy="389" r="4"/><circle cx="233" cy="413" r="4"/><circle cx="257" cy="29" r="4"/><circle cx="257" cy="53" r="4"/><circle cx="257" cy="77" r="4"/><circle cx="257" cy="101" r="4"/><circle cx="257" cy="125" r="4"/><circle cx="257" cy="149" r="4"/><circle cx="257" cy="173" r="4"/><circle cx="257" cy="197" r="4"/><circle cx="257" cy="221" r="4"/><circle cx="257" cy="245" r="4"/><circle cx="257" cy="269" r="4"/><circle cx="257" cy="293" r="4"/><circle cx="257" cy="317" r="4"/><circle cx="257" cy="341" r="4"/><circle cx="257" cy="365" r="4"/><circle cx="257" cy="389" r="4"/><circle cx="257" cy="413" r="4"/><circle cx="281" cy="29" r="4"/><circle cx="281" cy="53" r="4"/><circle cx="281" cy="77" r="4"/><circle cx="281" cy="101" r="4"/><circle cx="281" cy="125" r="4"/><circle cx="281" cy="149" r="4"/><circle cx="281" cy="173" r="4"/><circle cx="281" cy="197" r="4"/><circle cx="281" cy="221" r="4"/><circle cx="281" cy="245" r="4"/><circle cx="281" cy="269" r="4"/><circle cx="281" cy="293" r="4"/><circle cx="281" cy="317" r="4"/><circle cx="281" cy="341" r="4"/><circle cx="281" cy="365" r="4"/><circle cx="281" cy="389" r="4"/><circle cx="281" cy="413" r="4"/><circle cx="305" cy="29" r="4"/><circle cx="305" cy="53" r="4"/><circle cx="305" cy="77" r="4"/><circle cx="305" cy="101" r="4"/><circle cx="305" cy="125" r="4"/><circle cx="305" cy="149" r="4"/><circle cx="305" cy="173" r="4"/><circle cx="305" cy="197" r="4"/><circle cx="305" cy="221" r="4"/><circle cx="305" cy="245" r="4"/><circle cx="305" cy="269" r="4"/><circle cx="305" cy="293" r="4"/><circle cx="305" cy="317" r="4"/><circle cx="305" cy="341" r="4"/><circle cx="305" cy="365" r="4"/><circle cx="305" cy="389" r="4"/><circle cx="305" cy="413" r="4"/><circle cx="329" cy="29" r="4"/><circle cx="329" cy="53" r="4"/><circle cx="329" cy="77" r="4"/><circle cx="329" cy="101" r="4"/><circle cx="329" cy="125" r="4"/><circle cx="329" cy="149" r="4"/><circle cx="329" cy="173" r="4"/><circle cx="329" cy="197" r="4"/><circle cx="329" cy="221" r="4"/><circle cx="329" cy="245" r="4"/><circle cx="329" cy="269" r="4"/><circle cx="329" cy="293" r="4"/><circle cx="329" cy="317" r="4"/><circle cx="329" cy="341" r="4"/><circle cx="329" cy="365" r="4"/><circle cx="329" cy="389" r="4"/><circle cx="329" cy="413" r="4"/><circle cx="353" cy="53" r="4"/><circle cx="353" cy="77" r="4"/><circle cx="353" cy="101" r="4"/><circle cx="353" cy="125" r="4"/><circle cx="353" cy="149" r="4"/><circle cx="353" cy="173" r="4"/><circle cx="353" cy="197" r="4"/><circle cx="353" cy="221" r="4"/><circle cx="353" cy="245" r="4"/><circle cx="353" cy="269" r="4"/><circle cx="353" cy="293" r="4"/><circle cx="353" cy="317" r="4"/><circle cx="353" cy="341" r="4"/><circle cx="353" cy="365" r="4"/><circle cx="353" cy="389" r="4"/><circle cx="353" cy="413" r="4"/><circle cx="353" cy="437" r="4"/><circle cx="377" cy="77" r="4"/><circle cx="377" cy="101" r="4"/><circle cx="377" cy="125" r="4"/><circle cx="377" cy="149" r="4"/><circle cx="377" cy="173" r="4"/><circle cx="377" cy="197" r="4"/><circle cx="377" cy="221" r="4"/><circle cx="377" cy="245" r="4"/><circle cx="377" cy="269" r="4"/><circle cx="377" cy="293" r="4"/><circle cx="377" cy="317" r="4"/><circle cx="377" cy="341" r="4"/><circle cx="377" cy="365" r="4"/><circle cx="377" cy="389" r="4"/><circle cx="377" cy="413" r="4"/><circle cx="377" cy="437" r="4"/><circle cx="377" cy="461" r="4"/><circle cx="401" cy="101" r="4"/><circle cx="401" cy="125" r="4"/><circle cx="401" cy="149" r="4"/><circle cx="401" cy="173" r="4"/><circle cx="401" cy="197" r="4"/><circle cx="401" cy="221" r="4"/><circle cx="401" cy="245" r="4"/><circle cx="401" cy="269" r="4"/><circle cx="401" cy="293" r="4"/><circle cx="401" cy="317" r="4"/><circle cx="401" cy="341" r="4"/><circle cx="401" cy="365" r="4"/><circle cx="401" cy="389" r="4"/><circle cx="401" cy="413" r="4"/><circle cx="401" cy="437" r="4"/><circle cx="401" cy="461" r="4"/><circle cx="401" cy="485" r="4"/><circle cx="425" cy="125" r="4"/><circle cx="425" cy="149" r="4"/><circle cx="425" cy="173" r="4"/><circle cx="425" cy="197" r="4"/><circle cx="425" cy="221" r="4"/><circle cx="425" cy="245" r="4"/><circle cx="425" cy="269" r="4"/><circle cx="425" cy="293" r="4"/><circle cx="425" cy="317" r="4"/><circle cx="425" cy="341" r="4"/><circle cx="425" cy="365" r="4"/><circle cx="425" cy="389" r="4"/><circle cx="425" cy="413" r="4"/><circle cx="425" cy="437" r="4"/><circle cx="425" cy="461" r="4"/><circle cx="425" cy="485" r="4"/><circle cx="425" cy="509" r="4"/><circle cx="449" cy="149" r="4"/><circle cx="449" cy="173" r="4"/><circle cx="449" cy="197" r="4"/><circle cx="449" cy="221" r="4"/><circle cx="449" cy="245" r="4"/><circle cx="449" cy="269" r="4"/><circle cx="449" cy="293" r="4"/><circle cx="449" cy="317" r="4"/><circle cx="449" cy="341" r="4"/><circle cx="449" cy="365" r="4"/><circle cx="449" cy="389" r="4"/><circle cx="449" cy="413" r="4"/><circle cx="449" cy="437" r="4"/><circle cx="449" cy="461" r="4"/><circle cx="449" cy="485" r="4"/><circle cx="449" cy="509" r="4"/><circle cx="449" cy="533" r="4"/><circle cx="473" cy="173" r="4"/><circle cx="473" cy="197" r="4"/><circle cx="473" cy="221" r="4"/><circle cx="473" cy="245" r="4"/><circle cx="473" cy="269" r="4"/><circle cx="473" cy="293" r="4"/><circle cx="473" cy="317" r="4"/><circle cx="473" cy="341" r="4"/><circle cx="473" cy="365" r="4"/><circle cx="473" cy="389" r="4"/><circle cx="473" cy="413" r="4"/><circle cx="473" cy="437" r="4"/><circle cx="473" cy="461" r="4"/><circle cx="473" cy="485" r="4"/><circle cx="473" cy="509" r="4"/><circle cx="473" cy="533" r="4"/><circle cx="473" cy="557" r="4"/><circle cx="497" cy="197" r="4"/><circle cx="497" cy="221" r="4"/><circle cx="497" cy="245" r="4"/><circle cx="497" cy="269" r="4"/><circle cx="497" cy="293" r="4"/><circle cx="497" cy="317" r="4"/><circle cx="497" cy="341" r="4"/><circle cx="497" cy="365" r="4"/><circle cx="497" cy="389" r="4"/><circle cx="497" cy="413" r="4"/><circle cx="497" cy="437" r="4"/><circle cx="497" cy="461" r="4"/><circle cx="497" cy="485" r="4"/><circle cx="497" cy="509" r="4"/><circle cx="497" cy="533" r="4"/><circle cx="497" cy="557" r="4"/><circle cx="497" cy="581" r="4"/><circle cx="521" cy="221" r="4"/><circle cx="521" cy="245" r="4"/><circle cx="521" cy="269" r="4"/><circle cx="521" cy="293" r="4"/><circle cx="521" cy="317" r="4"/><circle cx="521" cy="341" r="4"/><circle cx="521" cy="365" r="4"/><circle cx="521" cy="389" r="4"/><circle cx="521" cy="413" r="4"/><circle cx="521" cy="437" r="4"/><circle cx="521" cy="461" r="4"/><circle cx="521" cy="485" r="4"/><circle cx="521" cy="509" r="4"/><circle cx="521" cy="533" r="4"/><circle cx="521" cy="557" r="4"/><circle cx="521" cy="581" r="4"/><circle cx="521" cy="605" r="4"/><circle cx="545" cy="245" r="4"/><circle cx="545" cy="269" r="4"/><circle cx="545" cy="293" r="4"/><circle cx="545" cy="317" r="4"/><circle cx="545" cy="341" r="4"/><circle cx="545" cy="365" r="4"/><circle cx="545" cy="389" r="4"/><circle cx="545" cy="413" r="4"/><circle cx="545" cy="437" r="4"/><circle cx="545" cy="461" r="4"/><circle cx="545" cy="485" r="4"/><circle cx="545" cy="509" r="4"/><circle cx="545" cy="533" r="4"/><circle cx="545" cy="557" r="4"/><circle cx="545" cy="581" r="4"/><circle cx="545" cy="605" r="4"/><circle cx="545" cy="629" r="4"/><circle cx="569" cy="269" r="4"/><circle cx="569" cy="293" r="4"/><circle cx="569" cy="317" r="4"/><circle cx="569" cy="341" r="4"/><circle cx="569" cy="365" r="4"/><circle cx="569" cy="389" r="4"/><circle cx="569" cy="413" r="4"/><circle cx="569" cy="437" r="4"/><circle cx="569" cy="461" r="4"/><circle cx="569" cy="485" r="4"/><circle cx="569" cy="509" r="4"/><circle cx="569" cy="533" r="4"/><circle cx="569" cy="557" r="4"/><circle cx="569" cy="581" r="4"/><circle cx="569" cy="605" r="4"/><circle cx="569" cy="629" r="4"/><circle cx="593" cy="269" r="4"/><circle cx="593" cy="293" r="4"/><circle cx="593" cy="317" r="4"/><circle cx="593" cy="341" r="4"/><circle cx="593" cy="365" r="4"/><circle cx="593" cy="389" r="4"/><circle cx="593" cy="413" r="4"/><circle cx="593" cy="437" r="4"/><circle cx="593" cy="461" r="4"/><circle cx="593" cy="485" r="4"/><circle cx="593" cy="509" r="4"/><circle cx="593" cy="533" r="4"/><circle cx="593" cy="557" r="4"/><circle cx="593" cy="581" r="4"/><circle cx="593" cy="605" r="4"/><circle cx="593" cy="629" r="4"/><circle cx="617" cy="269" r="4"/><circle cx="617" cy="293" r="4"/><circle cx="617" cy="317" r="4"/><circle cx="617" cy="341" r="4"/><circle cx="617" cy="365" r="4"/><circle cx="617" cy="389" r="4"/><circle cx="617" cy="413" r="4"/><circle cx="617" cy="437" r="4"/><circle cx="617" cy="461" r="4"/><circle cx="617" cy="485" r="4"/><circle cx="617" cy="509" r="4"/><circle cx="617" cy="533" r="4"/><circle cx="617" cy="557" r="4"/><circle cx="617" cy="581" r="4"/><circle cx="617" cy="605" r="4"/><circle cx="617" cy="629" r="4"/><circle cx="641" cy="269" r="4"/><circle cx="641" cy="293" r="4"/><circle cx="641" cy="317" r="4"/><circle cx="641" cy="341" r="4"/><circle cx="641" cy="365" r="4"/><circle cx="641" cy="389" r="4"/><circle cx="641" cy="413" r="4"/><circle cx="641" cy="437" r="4"/><circle cx="641" cy="461" r="4"/><circle cx="641" cy="485" r="4"/><circle cx="641" cy="509" r="4"/><circle cx="641" cy="533" r="4"/><circle cx="641" cy="557" r="4"/><circle cx="641" cy="581" r="4"/><circle cx="641" cy="605" r="4"/><circle cx="641" cy="629" r="4"/><circle cx="665" cy="245" r="4"/><circle cx="665" cy="269" r="4"/><circle cx="665" cy="293" r="4"/><circle cx="665" cy="317" r="4"/><circle cx="665" cy="341" r="4"/><circle cx="665" cy="365" r="4"/><circle cx="665" cy="389" r="4"/><circle cx="665" cy="413" r="4"/><circle cx="665" cy="437" r="4"/><circle cx="665" cy="461" r="4"/><circle cx="665" cy="485" r="4"/><circle cx="665" cy="509" r="4"/><circle cx="665" cy="533" r="4"/><circle cx="665" cy="557" r="4"/><circle cx="665" cy="581" r="4"/><circle cx="665" cy="605" r="4"/><circle cx="689" cy="221" r="4"/><circle cx="689" cy="245" r="4"/><circle cx="689" cy="269" r="4"/><circle cx="689" cy="293" r="4"/><circle cx="689" cy="317" r="4"/><circle cx="689" cy="341" r="4"/><circle cx="689" cy="365" r="4"/><circle cx="689" cy="389" r="4"/><circle cx="689" cy="413" r="4"/><circle cx="689" cy="437" r="4"/><circle cx="689" cy="461" r="4"/><circle cx="689" cy="485" r="4"/><circle cx="689" cy="509" r="4"/><circle cx="689" cy="533" r="4"/><circle cx="689" cy="557" r="4"/><circle cx="689" cy="581" r="4"/><circle cx="713" cy="197" r="4"/><circle cx="713" cy="221" r="4"/><circle cx="713" cy="245" r="4"/><circle cx="713" cy="269" r="4"/><circle cx="713" cy="293" r="4"/><circle cx="713" cy="317" r="4"/><circle cx="713" cy="341" r="4"/><circle cx="713" cy="365" r="4"/><circle cx="713" cy="389" r="4"/><circle cx="713" cy="413" r="4"/><circle cx="713" cy="437" r="4"/><circle cx="713" cy="461" r="4"/><circle cx="713" cy="485" r="4"/><circle cx="713" cy="509" r="4"/><circle cx="713" cy="533" r="4"/><circle cx="713" cy="557" r="4"/><circle cx="737" cy="173" r="4"/><circle cx="737" cy="197" r="4"/><circle cx="737" cy="221" r="4"/><circle cx="737" cy="245" r="4"/><circle cx="737" cy="269" r="4"/><circle cx="737" cy="293" r="4"/><circle cx="737" cy="317" r="4"/><circle cx="737" cy="341" r="4"/><circle cx="737" cy="365" r="4"/><circle cx="737" cy="389" r="4"/><circle cx="737" cy="413" r="4"/><circle cx="737" cy="437" r="4"/><circle cx="737" cy="461" r="4"/><circle cx="737" cy="485" r="4"/><circle cx="737" cy="509" r="4"/><circle cx="737" cy="533" r="4"/><circle cx="761" cy="149" r="4"/><circle cx="761" cy="173" r="4"/><circle cx="761" cy="197" r="4"/><circle cx="761" cy="221" r="4"/><circle cx="761" cy="245" r="4"/><circle cx="761" cy="269" r="4"/><circle cx="761" cy="293" r="4"/><circle cx="761" cy="317" r="4"/><circle cx="761" cy="341" r="4"/><circle cx="761" cy="365" r="4"/><circle cx="761" cy="389" r="4"/><circle cx="761" cy="413" r="4"/><circle cx="761" cy="437" r="4"/><circle cx="761" cy="461" r="4"/><circle cx="761" cy="485" r="4"/><circle cx="761" cy="509" r="4"/><circle cx="785" cy="149" r="4"/><circle cx="785" cy="173" r="4"/><circle cx="785" cy="197" r="4"/><circle cx="785" cy="221" r="4"/><circle cx="785" cy="245" r="4"/><circle cx="785" cy="269" r="4"/><circle cx="785" cy="293" r="4"/><circle cx="785" cy="317" r="4"/><circle cx="785" cy="341" r="4"/><circle cx="785" cy="365" r="4"/><circle cx="785" cy="389" r="4"/><circle cx="785" cy="413" r="4"/><circle cx="785" cy="437" r="4"/><circle cx="785" cy="461" r="4"/><circle cx="785" cy="485" r="4"/><circle cx="809" cy="149" r="4"/><circle cx="809" cy="173" r="4"/><circle cx="809" cy="197" r="4"/><circle cx="809" cy="221" r="4"/><circle cx="809" cy="245" r="4"/><circle cx="809" cy="269" r="4"/><circle cx="809" cy="293" r="4"/><circle cx="809" cy="317" r="4"/><circle cx="809" cy="341" r="4"/><circle cx="809" cy="365" r="4"/><circle cx="809" cy="389" r="4"/><circle cx="809" cy="413" r="4"/><circle cx="809" cy="437" r="4"/><circle cx="809" cy="461" r="4"/><circle cx="833" cy="149" r="4"/><circle cx="833" cy="173" r="4"/><circle cx="833" cy="197" r="4"/><circle cx="833" cy="221" r="4"/><circle cx="833" cy="245" r="4"/><circle cx="833" cy="269" r="4"/><circle cx="833" cy="293" r="4"/><circle cx="833" cy="317" r="4"/><circle cx="833" cy="341" r="4"/><circle cx="833" cy="365" r="4"/><circle cx="833" cy="389" r="4"/><circle cx="833" cy="413" r="4"/><circle cx="833" cy="437" r="4"/><circle cx="833" cy="461" r="4"/><circle cx="857" cy="149" r="4"/><circle cx="857" cy="173" r="4"/><circle cx="857" cy="197" r="4"/><circle cx="857" cy="221" r="4"/><circle cx="857" cy="245" r="4"/><circle cx="857" cy="269" r="4"/><circle cx="857" cy="293" r="4"/><circle cx="857" cy="317" r="4"/><circle cx="857" cy="341" r="4"/><circle cx="857" cy="365" r="4"/><circle cx="857" cy="389" r="4"/><circle cx="857" cy="413" r="4"/><circle cx="857" cy="437" r="4"/><circle cx="857" cy="461" r="4"/><circle cx="881" cy="149" r="4"/><circle cx="881" cy="173" r="4"/><circle cx="881" cy="197" r="4"/><circle cx="881" cy="221" r="4"/><circle cx="881" cy="245" r="4"/><circle cx="881" cy="269" r="4"/><circle cx="881" cy="293" r="4"/><circle cx="881" cy="317" r="4"/><circle cx="881" cy="341" r="4"/><circle cx="881" cy="365" r="4"/><circle cx="881" cy="389" r="4"/><circle cx="881" cy="413" r="4"/><circle cx="881" cy="437" r="4"/><circle cx="881" cy="461" r="4"/><circle cx="905" cy="173" r="4"/><circle cx="905" cy="197" r="4"/><circle cx="905" cy="221" r="4"/><circle cx="905" cy="245" r="4"/><circle cx="905" cy="269" r="4"/><circle cx="905" cy="293" r="4"/><circle cx="905" cy="317" r="4"/><circle cx="905" cy="341" r="4"/><circle cx="905" cy="365" r="4"/><circle cx="905" cy="389" r="4"/><circle cx="905" cy="413" r="4"/><circle cx="905" cy="437" r="4"/><circle cx="929" cy="197" r="4"/><circle cx="929" cy="221" r="4"/><circle cx="929" cy="245" r="4"/><circle cx="929" cy="269" r="4"/><circle cx="929" cy="293" r="4"/><circle cx="929" cy="317" r="4"/><circle cx="929" cy="341" r="4"/><circle cx="929" cy="365" r="4"/><circle cx="929" cy="389" r="4"/><circle cx="929" cy="413" r="4"/><circle cx="953" cy="221" r="4"/><circle cx="953" cy="245" r="4"/><circle cx="953" cy="269" r="4"/><circle cx="953" cy="293" r="4"/><circle cx="953" cy="317" r="4"/><circle cx="953" cy="341" r="4"/><circle cx="953" cy="365" r="4"/><circle cx="953" cy="389" r="4"/><circle cx="977" cy="245" r="4"/><circle cx="977" cy="269" r="4"/><circle cx="977" cy="293" r="4"/><circle cx="977" cy="317" r="4"/><circle cx="977" cy="341" r="4"/><circle cx="977" cy="365" r="4"/><circle cx="1001" cy="269" r="4"/><circle cx="1001" cy="293" r="4"/><circle cx="1001" cy="317" r="4"/><circle cx="1001" cy="341" r="4"/></g></svg>