<svg width="106" height="46" viewBox="0 0 106 46" xmlns="http://www.w3.org/2000/svg"><title>Slice</title><g fill="#FFF" fill-rule="evenodd"><circle transform="matrix(1 0 0 -1 0 34)" cx="41" cy="17" r="4"/><circle transform="rotate(-180 101 29)" cx="101" cy="29" r="4"/><circle transform="rotate(-180 89 17)" cx="89" cy="17" r="4"/><circle transform="rotate(-180 77 5)" cx="77" cy="5" r="4"/><circle transform="matrix(1 0 0 -1 0 82)" cx="41" cy="41" r="4"/><circle transform="matrix(1 0 0 -1 0 58)" cx="29" cy="29" r="4"/><circle transform="matrix(1 0 0 -1 0 58)" cx="53" cy="29" r="4"/><circle transform="matrix(1 0 0 -1 0 82)" cx="17" cy="41" r="4"/><circle transform="matrix(1 0 0 -1 0 58)" cx="53" cy="29" r="4"/><circle transform="matrix(1 0 0 -1 0 34)" cx="65" cy="17" r="4"/><circle transform="matrix(1 0 0 -1 0 82)" cx="89" cy="41" r="4"/><circle transform="matrix(1 0 0 -1 0 58)" cx="77" cy="29" r="4"/><circle transform="matrix(1 0 0 -1 0 82)" cx="65" cy="41" r="4"/></g></svg>