<svg width="720" height="520" xmlns="http://www.w3.org/2000/svg"><g fill="#212121" fill-rule="evenodd"><circle cx="122" cy="142" r="4"/><circle cx="122" cy="166" r="4"/><circle cx="122" cy="190" r="4"/><circle cx="122" cy="214" r="4"/><circle cx="122" cy="238" r="4"/><circle cx="122" cy="262" r="4"/><circle cx="122" cy="286" r="4"/><circle cx="122" cy="310" r="4"/><circle cx="122" cy="334" r="4"/><circle cx="122" cy="358" r="4"/><circle cx="122" cy="382" r="4"/><circle cx="122" cy="406" r="4"/><circle cx="110" cy="154" r="4"/><circle cx="110" cy="178" r="4"/><circle cx="110" cy="202" r="4"/><circle cx="110" cy="226" r="4"/><circle cx="110" cy="250" r="4"/><circle cx="110" cy="274" r="4"/><circle cx="110" cy="298" r="4"/><circle cx="110" cy="322" r="4"/><circle cx="110" cy="346" r="4"/><circle cx="110" cy="370" r="4"/><circle cx="110" cy="394" r="4"/><circle cx="98" cy="166" r="4"/><circle cx="98" cy="190" r="4"/><circle cx="98" cy="214" r="4"/><circle cx="98" cy="238" r="4"/><circle cx="98" cy="262" r="4"/><circle cx="98" cy="286" r="4"/><circle cx="98" cy="310" r="4"/><circle cx="98" cy="334" r="4"/><circle cx="98" cy="358" r="4"/><circle cx="98" cy="382" r="4"/><circle cx="86" cy="178" r="4"/><circle cx="86" cy="202" r="4"/><circle cx="86" cy="226" r="4"/><circle cx="86" cy="250" r="4"/><circle cx="86" cy="274" r="4"/><circle cx="86" cy="298" r="4"/><circle cx="86" cy="322" r="4"/><circle cx="86" cy="346" r="4"/><circle cx="86" cy="370" r="4"/><circle cx="74" cy="190" r="4"/><circle cx="74" cy="214" r="4"/><circle cx="74" cy="238" r="4"/><circle cx="74" cy="262" r="4"/><circle cx="74" cy="286" r="4"/><circle cx="74" cy="310" r="4"/><circle cx="74" cy="334" r="4"/><circle cx="74" cy="358" r="4"/><circle cx="62" cy="202" r="4"/><circle cx="62" cy="226" r="4"/><circle cx="62" cy="250" r="4"/><circle cx="62" cy="274" r="4"/><circle cx="62" cy="298" r="4"/><circle cx="62" cy="322" r="4"/><circle cx="62" cy="346" r="4"/><circle cx="50" cy="214" r="4"/><circle cx="50" cy="238" r="4"/><circle cx="50" cy="262" r="4"/><circle cx="50" cy="286" r="4"/><circle cx="50" cy="310" r="4"/><circle cx="50" cy="334" r="4"/><circle cx="38" cy="226" r="4"/><circle cx="38" cy="250" r="4"/><circle cx="38" cy="274" r="4"/><circle cx="38" cy="298" r="4"/><circle cx="38" cy="322" r="4"/><circle cx="146" cy="142" r="4"/><circle cx="146" cy="118" r="4"/><circle cx="146" cy="166" r="4"/><circle cx="146" cy="190" r="4"/><circle cx="146" cy="214" r="4"/><circle cx="146" cy="238" r="4"/><circle cx="146" cy="262" r="4"/><circle cx="146" cy="286" r="4"/><circle cx="146" cy="310" r="4"/><circle cx="146" cy="334" r="4"/><circle cx="146" cy="358" r="4"/><circle cx="146" cy="382" r="4"/><circle cx="146" cy="406" r="4"/><circle cx="170" cy="166" r="4"/><circle cx="170" cy="190" r="4"/><circle cx="170" cy="214" r="4"/><circle cx="170" cy="238" r="4"/><circle cx="170" cy="262" r="4"/><circle cx="170" cy="286" r="4"/><circle cx="170" cy="310" r="4"/><circle cx="170" cy="334" r="4"/><circle cx="170" cy="358" r="4"/><circle cx="170" cy="382" r="4"/><circle cx="170" cy="406" r="4"/><circle cx="194" cy="190" r="4"/><circle cx="218" cy="190" r="4"/><circle cx="242" cy="190" r="4"/><circle cx="266" cy="190" r="4"/><circle cx="290" cy="190" r="4"/><circle cx="194" cy="214" r="4"/><circle cx="194" cy="238" r="4"/><circle cx="194" cy="262" r="4"/><circle cx="194" cy="286" r="4"/><circle cx="194" cy="310" r="4"/><circle cx="194" cy="334" r="4"/><circle cx="194" cy="358" r="4"/><circle cx="194" cy="382" r="4"/><circle cx="194" cy="406" r="4"/><circle cx="218" cy="214" r="4"/><circle cx="218" cy="238" r="4"/><circle cx="218" cy="262" r="4"/><circle cx="218" cy="286" r="4"/><circle cx="218" cy="310" r="4"/><circle cx="218" cy="334" r="4"/><circle cx="218" cy="358" r="4"/><circle cx="218" cy="382" r="4"/><circle cx="218" cy="406" r="4"/><circle cx="242" cy="214" r="4"/><circle cx="242" cy="238" r="4"/><circle cx="242" cy="262" r="4"/><circle cx="242" cy="286" r="4"/><circle cx="242" cy="310" r="4"/><circle cx="242" cy="334" r="4"/><circle cx="242" cy="358" r="4"/><circle cx="242" cy="382" r="4"/><circle cx="242" cy="406" r="4"/><circle cx="266" cy="214" r="4"/><circle cx="266" cy="238" r="4"/><circle cx="266" cy="262" r="4"/><circle cx="266" cy="286" r="4"/><circle cx="266" cy="310" r="4"/><circle cx="266" cy="334" r="4"/><circle cx="266" cy="358" r="4"/><circle cx="266" cy="382" r="4"/><circle cx="266" cy="406" r="4"/><circle cx="290" cy="214" r="4"/><circle cx="290" cy="238" r="4"/><circle cx="290" cy="262" r="4"/><circle cx="290" cy="286" r="4"/><circle cx="290" cy="310" r="4"/><circle cx="290" cy="334" r="4"/><circle cx="290" cy="358" r="4"/><circle cx="290" cy="382" r="4"/><circle cx="290" cy="406" r="4"/><circle cx="314" cy="190" r="4"/><circle cx="314" cy="214" r="4"/><circle cx="314" cy="238" r="4"/><circle cx="314" cy="262" r="4"/><circle cx="314" cy="286" r="4"/><circle cx="314" cy="310" r="4"/><circle cx="314" cy="334" r="4"/><circle cx="314" cy="358" r="4"/><circle cx="314" cy="382" r="4"/><circle cx="314" cy="406" r="4"/><circle cx="338" cy="166" r="4"/><circle cx="338" cy="190" r="4"/><circle cx="338" cy="214" r="4"/><circle cx="338" cy="238" r="4"/><circle cx="338" cy="262" r="4"/><circle cx="338" cy="286" r="4"/><circle cx="338" cy="310" r="4"/><circle cx="338" cy="334" r="4"/><circle cx="338" cy="358" r="4"/><circle cx="338" cy="382" r="4"/><circle cx="338" cy="406" r="4"/><circle cx="338" cy="430" r="4"/><circle cx="362" cy="142" r="4"/><circle cx="362" cy="166" r="4"/><circle cx="362" cy="190" r="4"/><circle cx="362" cy="214" r="4"/><circle cx="362" cy="238" r="4"/><circle cx="362" cy="262" r="4"/><circle cx="362" cy="286" r="4"/><circle cx="362" cy="310" r="4"/><circle cx="362" cy="334" r="4"/><circle cx="362" cy="358" r="4"/><circle cx="362" cy="382" r="4"/><circle cx="362" cy="406" r="4"/><circle cx="362" cy="430" r="4"/><circle cx="386" cy="118" r="4"/><circle cx="386" cy="142" r="4"/><circle cx="386" cy="166" r="4"/><circle cx="386" cy="190" r="4"/><circle cx="386" cy="214" r="4"/><circle cx="386" cy="238" r="4"/><circle cx="386" cy="262" r="4"/><circle cx="386" cy="286" r="4"/><circle cx="386" cy="310" r="4"/><circle cx="386" cy="334" r="4"/><circle cx="386" cy="358" r="4"/><circle cx="386" cy="382" r="4"/><circle cx="386" cy="406" r="4"/><circle cx="386" cy="430" r="4"/><circle cx="410" cy="94" r="4"/><circle cx="410" cy="118" r="4"/><circle cx="410" cy="142" r="4"/><circle cx="410" cy="166" r="4"/><circle cx="410" cy="190" r="4"/><circle cx="410" cy="214" r="4"/><circle cx="410" cy="238" r="4"/><circle cx="410" cy="262" r="4"/><circle cx="410" cy="286" r="4"/><circle cx="410" cy="310" r="4"/><circle cx="410" cy="334" r="4"/><circle cx="410" cy="358" r="4"/><circle cx="410" cy="382" r="4"/><circle cx="410" cy="406" r="4"/><circle cx="410" cy="430" r="4"/><circle cx="434" cy="94" r="4"/><circle cx="434" cy="118" r="4"/><circle cx="434" cy="142" r="4"/><circle cx="434" cy="166" r="4"/><circle cx="434" cy="190" r="4"/><circle cx="434" cy="214" r="4"/><circle cx="434" cy="238" r="4"/><circle cx="434" cy="262" r="4"/><circle cx="434" cy="286" r="4"/><circle cx="434" cy="310" r="4"/><circle cx="434" cy="334" r="4"/><circle cx="434" cy="358" r="4"/><circle cx="434" cy="382" r="4"/><circle cx="434" cy="406" r="4"/><circle cx="434" cy="430" r="4"/><circle cx="458" cy="94" r="4"/><circle cx="458" cy="118" r="4"/><circle cx="458" cy="142" r="4"/><circle cx="458" cy="166" r="4"/><circle cx="458" cy="190" r="4"/><circle cx="458" cy="214" r="4"/><circle cx="458" cy="238" r="4"/><circle cx="458" cy="262" r="4"/><circle cx="458" cy="286" r="4"/><circle cx="458" cy="310" r="4"/><circle cx="458" cy="334" r="4"/><circle cx="458" cy="358" r="4"/><circle cx="458" cy="382" r="4"/><circle cx="458" cy="406" r="4"/><circle cx="458" cy="430" r="4"/><circle cx="482" cy="94" r="4"/><circle cx="482" cy="118" r="4"/><circle cx="482" cy="142" r="4"/><circle cx="482" cy="166" r="4"/><circle cx="482" cy="190" r="4"/><circle cx="482" cy="214" r="4"/><circle cx="482" cy="238" r="4"/><circle cx="482" cy="262" r="4"/><circle cx="482" cy="286" r="4"/><circle cx="482" cy="310" r="4"/><circle cx="482" cy="334" r="4"/><circle cx="482" cy="358" r="4"/><circle cx="482" cy="382" r="4"/><circle cx="482" cy="406" r="4"/><circle cx="482" cy="430" r="4"/><circle cx="362" cy="454" r="4"/><circle cx="386" cy="454" r="4"/><circle cx="386" cy="478" r="4"/><circle cx="410" cy="454" r="4"/><circle cx="410" cy="478" r="4"/><circle cx="434" cy="454" r="4"/><circle cx="434" cy="478" r="4"/><circle cx="458" cy="454" r="4"/><circle cx="458" cy="478" r="4"/><circle cx="482" cy="454" r="4"/><circle cx="482" cy="478" r="4"/><circle cx="374" cy="466" r="4"/><circle cx="398" cy="466" r="4"/><circle cx="422" cy="466" r="4"/><circle cx="446" cy="466" r="4"/><circle cx="470" cy="466" r="4"/><circle cx="494" cy="466" r="4"/><circle cx="350" cy="442" r="4"/><circle cx="374" cy="442" r="4"/><circle cx="398" cy="442" r="4"/><circle cx="422" cy="442" r="4"/><circle cx="446" cy="442" r="4"/><circle cx="470" cy="442" r="4"/><circle cx="494" cy="442" r="4"/><circle cx="134" cy="418" r="4"/><circle cx="158" cy="418" r="4"/><circle cx="182" cy="418" r="4"/><circle cx="206" cy="418" r="4"/><circle cx="230" cy="418" r="4"/><circle cx="254" cy="418" r="4"/><circle cx="278" cy="418" r="4"/><circle cx="302" cy="418" r="4"/><circle cx="326" cy="418" r="4"/><circle cx="350" cy="418" r="4"/><circle cx="374" cy="418" r="4"/><circle cx="398" cy="418" r="4"/><circle cx="422" cy="418" r="4"/><circle cx="446" cy="418" r="4"/><circle cx="470" cy="418" r="4"/><circle cx="494" cy="418" r="4"/><circle cx="506" cy="454" r="4"/><circle cx="506" cy="430" r="4"/><circle cx="506" cy="406" r="4"/><circle cx="518" cy="442" r="4"/><circle cx="518" cy="418" r="4"/><circle cx="518" cy="394" r="4"/><circle cx="530" cy="430" r="4"/><circle cx="530" cy="406" r="4"/><circle cx="530" cy="382" r="4"/><circle cx="542" cy="418" r="4"/><circle cx="542" cy="394" r="4"/><circle cx="542" cy="370" r="4"/><circle cx="554" cy="406" r="4"/><circle cx="554" cy="382" r="4"/><circle cx="554" cy="358" r="4"/><circle cx="566" cy="394" r="4"/><circle cx="566" cy="370" r="4"/><circle cx="566" cy="346" r="4"/><circle cx="578" cy="382" r="4"/><circle cx="578" cy="358" r="4"/><circle cx="578" cy="334" r="4"/><circle cx="590" cy="370" r="4"/><circle cx="590" cy="346" r="4"/><circle cx="590" cy="322" r="4"/><circle cx="602" cy="358" r="4"/><circle cx="602" cy="334" r="4"/><circle cx="602" cy="310" r="4"/><circle cx="614" cy="346" r="4"/><circle cx="614" cy="322" r="4"/><circle cx="614" cy="298" r="4"/><circle cx="626" cy="334" r="4"/><circle cx="626" cy="310" r="4"/><circle cx="650" cy="310" r="4"/><circle cx="626" cy="286" r="4"/><circle cx="638" cy="322" r="4"/><circle cx="638" cy="298" r="4"/><circle cx="662" cy="298" r="4"/><circle cx="650" cy="286" r="4"/><circle cx="638" cy="274" r="4"/><circle cx="506" cy="94" r="4"/><circle cx="506" cy="118" r="4"/><circle cx="506" cy="142" r="4"/><circle cx="506" cy="166" r="4"/><circle cx="506" cy="190" r="4"/><circle cx="506" cy="214" r="4"/><circle cx="506" cy="238" r="4"/><circle cx="506" cy="262" r="4"/><circle cx="506" cy="286" r="4"/><circle cx="506" cy="310" r="4"/><circle cx="506" cy="334" r="4"/><circle cx="506" cy="358" r="4"/><circle cx="506" cy="382" r="4"/><circle cx="530" cy="94" r="4"/><circle cx="530" cy="118" r="4"/><circle cx="530" cy="142" r="4"/><circle cx="530" cy="166" r="4"/><circle cx="530" cy="190" r="4"/><circle cx="530" cy="214" r="4"/><circle cx="530" cy="238" r="4"/><circle cx="530" cy="262" r="4"/><circle cx="530" cy="286" r="4"/><circle cx="530" cy="310" r="4"/><circle cx="530" cy="334" r="4"/><circle cx="530" cy="358" r="4"/><circle cx="554" cy="118" r="4"/><circle cx="554" cy="142" r="4"/><circle cx="554" cy="166" r="4"/><circle cx="554" cy="190" r="4"/><circle cx="554" cy="214" r="4"/><circle cx="554" cy="238" r="4"/><circle cx="554" cy="262" r="4"/><circle cx="554" cy="286" r="4"/><circle cx="554" cy="310" r="4"/><circle cx="554" cy="334" r="4"/><circle cx="578" cy="142" r="4"/><circle cx="578" cy="166" r="4"/><circle cx="578" cy="190" r="4"/><circle cx="578" cy="214" r="4"/><circle cx="578" cy="238" r="4"/><circle cx="578" cy="262" r="4"/><circle cx="578" cy="286" r="4"/><circle cx="578" cy="310" r="4"/><circle cx="602" cy="166" r="4"/><circle cx="602" cy="190" r="4"/><circle cx="602" cy="214" r="4"/><circle cx="602" cy="238" r="4"/><circle cx="602" cy="262" r="4"/><circle cx="602" cy="286" r="4"/><circle cx="626" cy="190" r="4"/><circle cx="626" cy="214" r="4"/><circle cx="626" cy="238" r="4"/><circle cx="626" cy="262" r="4"/><circle cx="134" cy="130" r="4"/><circle cx="134" cy="154" r="4"/><circle cx="134" cy="178" r="4"/><circle cx="134" cy="202" r="4"/><circle cx="134" cy="226" r="4"/><circle cx="134" cy="250" r="4"/><circle cx="134" cy="274" r="4"/><circle cx="134" cy="298" r="4"/><circle cx="134" cy="322" r="4"/><circle cx="134" cy="346" r="4"/><circle cx="134" cy="370" r="4"/><circle cx="134" cy="394" r="4"/><circle cx="158" cy="154" r="4"/><circle cx="158" cy="178" r="4"/><circle cx="158" cy="202" r="4"/><circle cx="158" cy="226" r="4"/><circle cx="158" cy="250" r="4"/><circle cx="158" cy="274" r="4"/><circle cx="158" cy="298" r="4"/><circle cx="158" cy="322" r="4"/><circle cx="158" cy="346" r="4"/><circle cx="158" cy="370" r="4"/><circle cx="158" cy="394" r="4"/><circle cx="182" cy="178" r="4"/><circle cx="182" cy="202" r="4"/><circle cx="182" cy="226" r="4"/><circle cx="182" cy="250" r="4"/><circle cx="182" cy="274" r="4"/><circle cx="182" cy="298" r="4"/><circle cx="182" cy="322" r="4"/><circle cx="182" cy="346" r="4"/><circle cx="182" cy="370" r="4"/><circle cx="182" cy="394" r="4"/><circle cx="206" cy="202" r="4"/><circle cx="206" cy="226" r="4"/><circle cx="206" cy="250" r="4"/><circle cx="206" cy="274" r="4"/><circle cx="206" cy="298" r="4"/><circle cx="206" cy="322" r="4"/><circle cx="206" cy="346" r="4"/><circle cx="206" cy="370" r="4"/><circle cx="206" cy="394" r="4"/><circle cx="230" cy="202" r="4"/><circle cx="230" cy="226" r="4"/><circle cx="230" cy="250" r="4"/><circle cx="230" cy="274" r="4"/><circle cx="230" cy="298" r="4"/><circle cx="230" cy="322" r="4"/><circle cx="230" cy="346" r="4"/><circle cx="230" cy="370" r="4"/><circle cx="230" cy="394" r="4"/><circle cx="254" cy="202" r="4"/><circle cx="254" cy="226" r="4"/><circle cx="254" cy="250" r="4"/><circle cx="254" cy="274" r="4"/><circle cx="254" cy="298" r="4"/><circle cx="254" cy="322" r="4"/><circle cx="254" cy="346" r="4"/><circle cx="254" cy="370" r="4"/><circle cx="254" cy="394" r="4"/><circle cx="278" cy="202" r="4"/><circle cx="278" cy="226" r="4"/><circle cx="278" cy="250" r="4"/><circle cx="278" cy="274" r="4"/><circle cx="278" cy="298" r="4"/><circle cx="278" cy="322" r="4"/><circle cx="278" cy="346" r="4"/><circle cx="278" cy="370" r="4"/><circle cx="278" cy="394" r="4"/><circle cx="302" cy="202" r="4"/><circle cx="302" cy="226" r="4"/><circle cx="302" cy="250" r="4"/><circle cx="302" cy="274" r="4"/><circle cx="302" cy="298" r="4"/><circle cx="302" cy="322" r="4"/><circle cx="302" cy="346" r="4"/><circle cx="302" cy="370" r="4"/><circle cx="302" cy="394" r="4"/><circle cx="326" cy="178" r="4"/><circle cx="326" cy="202" r="4"/><circle cx="326" cy="226" r="4"/><circle cx="326" cy="250" r="4"/><circle cx="326" cy="274" r="4"/><circle cx="326" cy="298" r="4"/><circle cx="326" cy="322" r="4"/><circle cx="326" cy="346" r="4"/><circle cx="326" cy="370" r="4"/><circle cx="326" cy="394" r="4"/><circle cx="350" cy="154" r="4"/><circle cx="350" cy="178" r="4"/><circle cx="350" cy="202" r="4"/><circle cx="158" cy="106" r="4"/><circle cx="158" cy="130" r="4"/><circle cx="182" cy="106" r="4"/><circle cx="182" cy="130" r="4"/><circle cx="182" cy="154" r="4"/><circle cx="206" cy="106" r="4"/><circle cx="206" cy="130" r="4"/><circle cx="206" cy="154" r="4"/><circle cx="206" cy="178" r="4"/><circle cx="230" cy="106" r="4"/><circle cx="230" cy="130" r="4"/><circle cx="230" cy="154" r="4"/><circle cx="230" cy="178" r="4"/><circle cx="254" cy="106" r="4"/><circle cx="254" cy="130" r="4"/><circle cx="254" cy="154" r="4"/><circle cx="254" cy="178" r="4"/><circle cx="278" cy="106" r="4"/><circle cx="278" cy="130" r="4"/><circle cx="278" cy="154" r="4"/><circle cx="278" cy="178" r="4"/><circle cx="302" cy="106" r="4"/><circle cx="302" cy="130" r="4"/><circle cx="302" cy="154" r="4"/><circle cx="302" cy="178" r="4"/><circle cx="326" cy="106" r="4"/><circle cx="326" cy="130" r="4"/><circle cx="326" cy="154" r="4"/><circle cx="350" cy="106" r="4"/><circle cx="350" cy="130" r="4"/><circle cx="350" cy="226" r="4"/><circle cx="350" cy="250" r="4"/><circle cx="350" cy="274" r="4"/><circle cx="350" cy="298" r="4"/><circle cx="350" cy="322" r="4"/><circle cx="350" cy="346" r="4"/><circle cx="350" cy="370" r="4"/><circle cx="350" cy="394" r="4"/><circle cx="374" cy="130" r="4"/><circle cx="374" cy="154" r="4"/><circle cx="374" cy="178" r="4"/><circle cx="374" cy="202" r="4"/><circle cx="374" cy="226" r="4"/><circle cx="374" cy="250" r="4"/><circle cx="374" cy="274" r="4"/><circle cx="374" cy="298" r="4"/><circle cx="374" cy="322" r="4"/><circle cx="374" cy="346" r="4"/><circle cx="374" cy="370" r="4"/><circle cx="374" cy="394" r="4"/><circle cx="398" cy="106" r="4"/><circle cx="374" cy="106" r="4"/><circle cx="170" cy="94" r="4"/><circle cx="170" cy="118" r="4"/><circle cx="194" cy="94" r="4"/><circle cx="194" cy="118" r="4"/><circle cx="218" cy="94" r="4"/><circle cx="218" cy="118" r="4"/><circle cx="242" cy="94" r="4"/><circle cx="242" cy="118" r="4"/><circle cx="266" cy="94" r="4"/><circle cx="266" cy="118" r="4"/><circle cx="290" cy="94" r="4"/><circle cx="290" cy="118" r="4"/><circle cx="314" cy="94" r="4"/><circle cx="314" cy="118" r="4"/><circle cx="338" cy="94" r="4"/><circle cx="338" cy="118" r="4"/><circle cx="362" cy="94" r="4"/><circle cx="362" cy="118" r="4"/><circle cx="170" cy="142" r="4"/><circle cx="194" cy="142" r="4"/><circle cx="194" cy="166" r="4"/><circle cx="218" cy="142" r="4"/><circle cx="218" cy="166" r="4"/><circle cx="242" cy="142" r="4"/><circle cx="242" cy="166" r="4"/><circle cx="266" cy="142" r="4"/><circle cx="266" cy="166" r="4"/><circle cx="290" cy="142" r="4"/><circle cx="290" cy="166" r="4"/><circle cx="314" cy="142" r="4"/><circle cx="314" cy="166" r="4"/><circle cx="338" cy="142" r="4"/><circle cx="362" cy="142" r="4"/><circle cx="182" cy="82" r="4"/><circle cx="206" cy="82" r="4"/><circle cx="230" cy="82" r="4"/><circle cx="254" cy="82" r="4"/><circle cx="278" cy="82" r="4"/><circle cx="302" cy="82" r="4"/><circle cx="326" cy="82" r="4"/><circle cx="350" cy="82" r="4"/><circle cx="194" cy="70" r="4"/><circle cx="218" cy="70" r="4"/><circle cx="242" cy="70" r="4"/><circle cx="266" cy="70" r="4"/><circle cx="290" cy="70" r="4"/><circle cx="314" cy="70" r="4"/><circle cx="338" cy="70" r="4"/><circle cx="206" cy="58" r="4"/><circle cx="230" cy="58" r="4"/><circle cx="254" cy="58" r="4"/><circle cx="278" cy="58" r="4"/><circle cx="302" cy="58" r="4"/><circle cx="326" cy="58" r="4"/><circle cx="218" cy="46" r="4"/><circle cx="242" cy="46" r="4"/><circle cx="266" cy="46" r="4"/><circle cx="290" cy="46" r="4"/><circle cx="314" cy="46" r="4"/><circle cx="398" cy="130" r="4"/><circle cx="398" cy="154" r="4"/><circle cx="398" cy="178" r="4"/><circle cx="398" cy="202" r="4"/><circle cx="398" cy="226" r="4"/><circle cx="398" cy="250" r="4"/><circle cx="398" cy="274" r="4"/><circle cx="398" cy="298" r="4"/><circle cx="398" cy="322" r="4"/><circle cx="398" cy="346" r="4"/><circle cx="398" cy="370" r="4"/><circle cx="398" cy="394" r="4"/><circle cx="422" cy="82" r="4"/><circle cx="422" cy="106" r="4"/><circle cx="422" cy="130" r="4"/><circle cx="422" cy="154" r="4"/><circle cx="422" cy="178" r="4"/><circle cx="422" cy="202" r="4"/><circle cx="422" cy="226" r="4"/><circle cx="422" cy="250" r="4"/><circle cx="422" cy="274" r="4"/><circle cx="422" cy="298" r="4"/><circle cx="422" cy="322" r="4"/><circle cx="422" cy="346" r="4"/><circle cx="422" cy="370" r="4"/><circle cx="422" cy="394" r="4"/><circle cx="446" cy="82" r="4"/><circle cx="446" cy="106" r="4"/><circle cx="446" cy="130" r="4"/><circle cx="446" cy="154" r="4"/><circle cx="446" cy="178" r="4"/><circle cx="446" cy="202" r="4"/><circle cx="446" cy="226" r="4"/><circle cx="446" cy="250" r="4"/><circle cx="446" cy="274" r="4"/><circle cx="446" cy="298" r="4"/><circle cx="446" cy="322" r="4"/><circle cx="446" cy="346" r="4"/><circle cx="446" cy="370" r="4"/><circle cx="446" cy="394" r="4"/><circle cx="470" cy="82" r="4"/><circle cx="470" cy="106" r="4"/><circle cx="470" cy="130" r="4"/><circle cx="470" cy="154" r="4"/><circle cx="470" cy="178" r="4"/><circle cx="470" cy="202" r="4"/><circle cx="470" cy="226" r="4"/><circle cx="470" cy="250" r="4"/><circle cx="470" cy="274" r="4"/><circle cx="470" cy="298" r="4"/><circle cx="470" cy="322" r="4"/><circle cx="470" cy="346" r="4"/><circle cx="470" cy="370" r="4"/><circle cx="470" cy="394" r="4"/><circle cx="494" cy="82" r="4"/><circle cx="494" cy="106" r="4"/><circle cx="494" cy="130" r="4"/><circle cx="494" cy="154" r="4"/><circle cx="494" cy="178" r="4"/><circle cx="494" cy="202" r="4"/><circle cx="494" cy="226" r="4"/><circle cx="494" cy="250" r="4"/><circle cx="494" cy="274" r="4"/><circle cx="494" cy="298" r="4"/><circle cx="494" cy="322" r="4"/><circle cx="494" cy="346" r="4"/><circle cx="494" cy="370" r="4"/><circle cx="494" cy="394" r="4"/><circle cx="518" cy="82" r="4"/><circle cx="518" cy="106" r="4"/><circle cx="518" cy="130" r="4"/><circle cx="518" cy="154" r="4"/><circle cx="518" cy="178" r="4"/><circle cx="518" cy="202" r="4"/><circle cx="518" cy="226" r="4"/><circle cx="518" cy="250" r="4"/><circle cx="518" cy="274" r="4"/><circle cx="518" cy="298" r="4"/><circle cx="518" cy="322" r="4"/><circle cx="518" cy="346" r="4"/><circle cx="518" cy="370" r="4"/><circle cx="542" cy="106" r="4"/><circle cx="542" cy="130" r="4"/><circle cx="542" cy="154" r="4"/><circle cx="542" cy="178" r="4"/><circle cx="542" cy="202" r="4"/><circle cx="542" cy="226" r="4"/><circle cx="542" cy="250" r="4"/><circle cx="542" cy="274" r="4"/><circle cx="542" cy="298" r="4"/><circle cx="542" cy="322" r="4"/><circle cx="542" cy="346" r="4"/><circle cx="566" cy="130" r="4"/><circle cx="566" cy="154" r="4"/><circle cx="566" cy="178" r="4"/><circle cx="566" cy="202" r="4"/><circle cx="566" cy="226" r="4"/><circle cx="566" cy="250" r="4"/><circle cx="566" cy="274" r="4"/><circle cx="566" cy="298" r="4"/><circle cx="566" cy="322" r="4"/><circle cx="590" cy="154" r="4"/><circle cx="590" cy="178" r="4"/><circle cx="590" cy="202" r="4"/><circle cx="590" cy="226" r="4"/><circle cx="590" cy="250" r="4"/><circle cx="590" cy="274" r="4"/><circle cx="590" cy="298" r="4"/><circle cx="614" cy="178" r="4"/><circle cx="614" cy="202" r="4"/><circle cx="614" cy="226" r="4"/><circle cx="614" cy="250" r="4"/><circle cx="614" cy="274" r="4"/><circle cx="638" cy="202" r="4"/><circle cx="638" cy="226" r="4"/><circle cx="638" cy="250" r="4"/><circle cx="650" cy="214" r="4"/><circle cx="650" cy="238" r="4"/><circle cx="650" cy="262" r="4"/><circle cx="662" cy="226" r="4"/><circle cx="662" cy="250" r="4"/><circle cx="662" cy="274" r="4"/><circle cx="674" cy="238" r="4"/><circle cx="674" cy="262" r="4"/><circle cx="674" cy="286" r="4"/></g></svg>