<svg width="120" height="72" viewBox="0 0 120 72" xmlns="http://www.w3.org/2000/svg"><title>Group</title><g fill="#212121" fill-rule="evenodd"><circle cx="6" cy="6" r="4"/><circle cx="18" cy="18" r="4"/><circle cx="30" cy="54" r="4"/><circle cx="42" cy="42" r="4"/><circle cx="18" cy="66" r="4"/><circle cx="30" cy="30" r="4"/><circle cx="30" cy="6" r="4"/><circle cx="42" cy="18" r="4"/><circle cx="54" cy="54" r="4"/><circle cx="66" cy="42" r="4"/><circle cx="42" cy="66" r="4"/><circle cx="54" cy="30" r="4"/><circle cx="54" cy="6" r="4"/><circle cx="66" cy="18" r="4"/><circle cx="78" cy="54" r="4"/><circle cx="90" cy="42" r="4"/><circle cx="66" cy="66" r="4"/><circle cx="90" cy="66" r="4"/><circle cx="78" cy="30" r="4"/><circle cx="78" cy="6" r="4"/><circle cx="90" cy="18" r="4"/><circle cx="102" cy="54" r="4"/><circle cx="114" cy="42" r="4"/><circle cx="102" cy="30" r="4"/></g></svg>