<svg width="82" height="22" viewBox="0 0 82 22" xmlns="http://www.w3.org/2000/svg"><title>Slice</title><g fill="#212121" fill-rule="evenodd"><circle transform="matrix(1 0 0 -1 0 10)" cx="5" cy="5" r="4"/><circle transform="matrix(1 0 0 -1 0 34)" cx="17" cy="17" r="4"/><circle transform="matrix(1 0 0 -1 0 10)" cx="29" cy="5" r="4"/><circle transform="matrix(1 0 0 -1 0 10)" cx="53" cy="5" r="4"/><circle transform="matrix(1 0 0 -1 0 10)" cx="77" cy="5" r="4"/><circle transform="matrix(1 0 0 -1 0 34)" cx="65" cy="17" r="4"/><circle transform="matrix(1 0 0 -1 0 34)" cx="41" cy="17" r="4"/></g></svg>