<svg xmlns="http://www.w3.org/2000/svg" width="900" height="900" viewBox="0 0 900 900"><title>Artboard 1</title><path d="M9,900c1-24,1.25-24.77,2-33,1-11.72,5-43,7-53,2.55-12.6,7-22.76,19-41.12a287.78,287.78,0,0,1,17.19-24C64,736.65,71.93,728.6,85.63,717c3.43-2.9,7.15-5.58,10.75-8.18l.13-.09c1.92-1.39,3.91-2.82,5.8-4.26l.12-.09c7.3-5.54,14.85-11.27,22.5-16.77,4.57-3.29,72.05-48.44,97.74-64,3.67-2.22,25.71-15.33,34.53-20C271.65,596,293.11,585.78,308,579c2.38-1.08,17.85-7.75,17.85-7.75s.92-32.15-.06-41.08a38.49,38.49,0,0,0-2.87-9.94c-1.46-2.82-4.64-6.72-7.72-10.5a89.1,89.1,0,0,1-6.48-8.53c-3.27-5.37-9.66-19.87-10.57-22.33-1.15-3.13-5.87-17.8-6.87-22.16-1.05-4.58-1.88-9.16-2.69-13.58-.28-1.56-.51-3.12-.73-4.64a45.72,45.72,0,0,0-2.28-10.32l-.09-.23-.14-.2c-.23-.32-.76-1-1.21-1.6a53.32,53.32,0,0,1-4.07-5.77,116.84,116.84,0,0,1-7.9-17.23c-3.17-9.3-5.92-18.69-8.17-27.9-1.3-5.32-2.18-10.61-3-15.73-.44-2.69-.86-5.23-1.35-7.8l-.36-1.92c-.46-2.47-1-5-1.46-7.64-.65-3.34-1.31-6.75-2-10.23-.73-3.93.87-8.4,2.15-12l.43-1.21v-.32c0-1.44-.75-4.69-2.59-10.87-.22-.75-.41-1.37-.53-1.8-.37-1.32-1.38-5.93-1.42-6.12v-.07c-.12-.65-.24-1.27-.35-1.85-.25-1.33-.49-2.58-.68-3.92-.45-3.24-.85-6.59-1.17-9.27-.26-2.19-.55-4.37-.83-6.56l0-.15c-.72-5.59-1.47-11.36-1.88-17.22s.82-11.29,1.92-16c.33-1.42.65-2.77.9-4.08.49-2.51,2.87-9.77,5.17-16.79,2-6,4-12.15,4.49-14.35.44-1.95,4.38-19.18,6.68-25,2.47-6.23,9-16.06,12.49-20.46a168.22,168.22,0,0,1,17.21-17.61c4-3.26,8.09-5.47,14.38-8.81l.13-.07c.47-.25,1.13-.6,1.93-.94l1.09-.45h0l.13-1.17c.93-8.45,2.79-19.43,9.07-29.48,7.27-11.64,15.85-23.52,29.32-31.63,24.75-14.9,54-21.55,57.25-22.26a128.35,128.35,0,0,1,22.18-2.16c1.08,0,2,0,2.86.08,4,.25,9.34,1,12,2.23h0C448.34,52.88,450,60,450,60s0,793,0,838a2,2,0,0,1-2,2S9,900,9,900Z" style="fill:#3e38ff"/></svg>